<mxfile modified="2024-06-29T09:01:44.041Z" host="Electron" agent="Mozilla/5.0 (Macintosh; Intel Mac OS X 10_15_7) AppleWebKit/537.36 (KHTML, like Gecko) draw.io/24.6.4 Chrome/124.0.6367.207 Electron/30.0.6 Safari/537.36" etag="z_FxjiRhtU0QoUxaiBGW" version="24.6.4" type="device">
  <diagram id="Ht1M8jgEwFfnCIfOTk4-" name="Page-1">
    <mxGraphModel dx="954" dy="1444" grid="1" gridSize="10" guides="1" tooltips="1" connect="1" arrows="1" fold="1" page="1" pageScale="1" pageWidth="1169" pageHeight="827" math="0" shadow="0">
      <root>
        <mxCell id="0" />
        <mxCell id="1" parent="0" />
        <mxCell id="UEzPUAAOIrF-is8g5C7q-74" value="AWS Cloud" style="points=[[0,0],[0.25,0],[0.5,0],[0.75,0],[1,0],[1,0.25],[1,0.5],[1,0.75],[1,1],[0.75,1],[0.5,1],[0.25,1],[0,1],[0,0.75],[0,0.5],[0,0.25]];outlineConnect=0;gradientColor=none;html=1;whiteSpace=wrap;fontSize=12;fontStyle=0;shape=mxgraph.aws4.group;grIcon=mxgraph.aws4.group_aws_cloud_alt;strokeColor=#232F3E;fillColor=none;verticalAlign=top;align=left;spacingLeft=30;fontColor=#232F3E;dashed=0;labelBackgroundColor=#ffffff;container=1;pointerEvents=0;collapsible=0;recursiveResize=0;" parent="1" vertex="1">
          <mxGeometry x="30" y="-10" width="810" height="810" as="geometry" />
        </mxCell>
        <mxCell id="4zRke8CRrw9mpxlsunHC-11" value="us-east-1 region" style="points=[[0,0],[0.25,0],[0.5,0],[0.75,0],[1,0],[1,0.25],[1,0.5],[1,0.75],[1,1],[0.75,1],[0.5,1],[0.25,1],[0,1],[0,0.75],[0,0.5],[0,0.25]];outlineConnect=0;gradientColor=none;html=1;whiteSpace=wrap;fontSize=12;fontStyle=0;container=1;pointerEvents=0;collapsible=0;recursiveResize=0;shape=mxgraph.aws4.group;grIcon=mxgraph.aws4.group_region;strokeColor=#00A4A6;fillColor=none;verticalAlign=top;align=left;spacingLeft=30;fontColor=#147EBA;dashed=1;" vertex="1" parent="UEzPUAAOIrF-is8g5C7q-74">
          <mxGeometry x="20" y="50" width="750" height="640" as="geometry" />
        </mxCell>
        <mxCell id="4zRke8CRrw9mpxlsunHC-9" value="VPC" style="points=[[0,0],[0.25,0],[0.5,0],[0.75,0],[1,0],[1,0.25],[1,0.5],[1,0.75],[1,1],[0.75,1],[0.5,1],[0.25,1],[0,1],[0,0.75],[0,0.5],[0,0.25]];outlineConnect=0;gradientColor=none;html=1;whiteSpace=wrap;fontSize=12;fontStyle=0;container=1;pointerEvents=0;collapsible=0;recursiveResize=0;shape=mxgraph.aws4.group;grIcon=mxgraph.aws4.group_vpc2;strokeColor=#8C4FFF;fillColor=none;verticalAlign=top;align=left;spacingLeft=30;fontColor=#AAB7B8;dashed=0;" vertex="1" parent="4zRke8CRrw9mpxlsunHC-11">
          <mxGeometry x="27.5" y="36" width="702.5" height="604" as="geometry" />
        </mxCell>
        <mxCell id="4zRke8CRrw9mpxlsunHC-21" value="AZ1" style="sketch=0;outlineConnect=0;gradientColor=none;html=1;whiteSpace=wrap;fontSize=12;fontStyle=0;shape=mxgraph.aws4.group;grIcon=mxgraph.aws4.group_availability_zone;strokeColor=#545B64;fillColor=none;verticalAlign=top;align=left;spacingLeft=30;fontColor=#545B64;dashed=1;" vertex="1" parent="4zRke8CRrw9mpxlsunHC-9">
          <mxGeometry x="30" y="39" width="217.5" height="534" as="geometry" />
        </mxCell>
        <mxCell id="4zRke8CRrw9mpxlsunHC-26" value="Private subnet" style="points=[[0,0],[0.25,0],[0.5,0],[0.75,0],[1,0],[1,0.25],[1,0.5],[1,0.75],[1,1],[0.75,1],[0.5,1],[0.25,1],[0,1],[0,0.75],[0,0.5],[0,0.25]];outlineConnect=0;gradientColor=none;html=1;whiteSpace=wrap;fontSize=12;fontStyle=0;container=1;pointerEvents=0;collapsible=0;recursiveResize=0;shape=mxgraph.aws4.group;grIcon=mxgraph.aws4.group_security_group;grStroke=0;strokeColor=#00A4A6;fillColor=#E6F6F7;verticalAlign=top;align=left;spacingLeft=30;fontColor=#147EBA;dashed=0;" vertex="1" parent="4zRke8CRrw9mpxlsunHC-9">
          <mxGeometry x="43.5" y="360" width="136.5" height="140" as="geometry" />
        </mxCell>
        <mxCell id="4zRke8CRrw9mpxlsunHC-98" value="" style="rounded=1;arcSize=10;dashed=1;strokeColor=#ff0000;fillColor=none;gradientColor=none;dashPattern=8 4;strokeWidth=2;" vertex="1" parent="4zRke8CRrw9mpxlsunHC-9">
          <mxGeometry x="300.63" y="130" width="89.37" height="84" as="geometry" />
        </mxCell>
        <mxCell id="4zRke8CRrw9mpxlsunHC-22" value="AZ2" style="sketch=0;outlineConnect=0;gradientColor=none;html=1;whiteSpace=wrap;fontSize=12;fontStyle=0;shape=mxgraph.aws4.group;grIcon=mxgraph.aws4.group_availability_zone;strokeColor=#545B64;fillColor=none;verticalAlign=top;align=left;spacingLeft=30;fontColor=#545B64;dashed=1;" vertex="1" parent="4zRke8CRrw9mpxlsunHC-9">
          <mxGeometry x="490" y="33" width="192.5" height="540" as="geometry" />
        </mxCell>
        <mxCell id="4zRke8CRrw9mpxlsunHC-27" value="Public subnet" style="points=[[0,0],[0.25,0],[0.5,0],[0.75,0],[1,0],[1,0.25],[1,0.5],[1,0.75],[1,1],[0.75,1],[0.5,1],[0.25,1],[0,1],[0,0.75],[0,0.5],[0,0.25]];outlineConnect=0;gradientColor=none;html=1;whiteSpace=wrap;fontSize=12;fontStyle=0;container=1;pointerEvents=0;collapsible=0;recursiveResize=0;shape=mxgraph.aws4.group;grIcon=mxgraph.aws4.group_security_group;grStroke=0;strokeColor=#7AA116;fillColor=#F2F6E8;verticalAlign=top;align=left;spacingLeft=30;fontColor=#248814;dashed=0;" vertex="1" parent="4zRke8CRrw9mpxlsunHC-9">
          <mxGeometry x="43.5" y="96" width="176.5" height="204" as="geometry" />
        </mxCell>
        <mxCell id="4zRke8CRrw9mpxlsunHC-36" value="" style="outlineConnect=0;dashed=0;verticalLabelPosition=bottom;verticalAlign=top;align=center;html=1;shape=mxgraph.aws3.vpc_nat_gateway;fillColor=#F58536;gradientColor=none;" vertex="1" parent="4zRke8CRrw9mpxlsunHC-27">
          <mxGeometry x="40" y="47" width="60" height="58" as="geometry" />
        </mxCell>
        <mxCell id="4zRke8CRrw9mpxlsunHC-91" value="Bastion SG" style="text;html=1;align=center;verticalAlign=middle;whiteSpace=wrap;rounded=0;" vertex="1" parent="4zRke8CRrw9mpxlsunHC-27">
          <mxGeometry x="140" y="138" width="60" height="30" as="geometry" />
        </mxCell>
        <mxCell id="4zRke8CRrw9mpxlsunHC-38" value="" style="outlineConnect=0;dashed=0;verticalLabelPosition=bottom;verticalAlign=top;align=center;html=1;shape=mxgraph.aws3.ec2;fillColor=#F58534;gradientColor=none;" vertex="1" parent="4zRke8CRrw9mpxlsunHC-9">
          <mxGeometry x="89.31" y="412" width="44.88" height="54" as="geometry" />
        </mxCell>
        <mxCell id="4zRke8CRrw9mpxlsunHC-32" value="Public subnet" style="points=[[0,0],[0.25,0],[0.5,0],[0.75,0],[1,0],[1,0.25],[1,0.5],[1,0.75],[1,1],[0.75,1],[0.5,1],[0.25,1],[0,1],[0,0.75],[0,0.5],[0,0.25]];outlineConnect=0;gradientColor=none;html=1;whiteSpace=wrap;fontSize=12;fontStyle=0;container=1;pointerEvents=0;collapsible=0;recursiveResize=0;shape=mxgraph.aws4.group;grIcon=mxgraph.aws4.group_security_group;grStroke=0;strokeColor=#7AA116;fillColor=#F2F6E8;verticalAlign=top;align=left;spacingLeft=30;fontColor=#248814;dashed=0;" vertex="1" parent="4zRke8CRrw9mpxlsunHC-9">
          <mxGeometry x="522.5" y="96" width="130" height="154" as="geometry" />
        </mxCell>
        <mxCell id="4zRke8CRrw9mpxlsunHC-37" value="" style="outlineConnect=0;dashed=0;verticalLabelPosition=bottom;verticalAlign=top;align=center;html=1;shape=mxgraph.aws3.vpc_nat_gateway;fillColor=#F58536;gradientColor=none;" vertex="1" parent="4zRke8CRrw9mpxlsunHC-32">
          <mxGeometry x="41.5" y="47" width="59.5" height="58" as="geometry" />
        </mxCell>
        <mxCell id="4zRke8CRrw9mpxlsunHC-29" value="Private subnet" style="points=[[0,0],[0.25,0],[0.5,0],[0.75,0],[1,0],[1,0.25],[1,0.5],[1,0.75],[1,1],[0.75,1],[0.5,1],[0.25,1],[0,1],[0,0.75],[0,0.5],[0,0.25]];outlineConnect=0;gradientColor=none;html=1;whiteSpace=wrap;fontSize=12;fontStyle=0;container=1;pointerEvents=0;collapsible=0;recursiveResize=0;shape=mxgraph.aws4.group;grIcon=mxgraph.aws4.group_security_group;grStroke=0;strokeColor=#00A4A6;fillColor=#E6F6F7;verticalAlign=top;align=left;spacingLeft=30;fontColor=#147EBA;dashed=0;" vertex="1" parent="4zRke8CRrw9mpxlsunHC-9">
          <mxGeometry x="529.75" y="370" width="130" height="130" as="geometry" />
        </mxCell>
        <mxCell id="4zRke8CRrw9mpxlsunHC-39" value="" style="outlineConnect=0;dashed=0;verticalLabelPosition=bottom;verticalAlign=top;align=center;html=1;shape=mxgraph.aws3.ec2;fillColor=#F58534;gradientColor=none;" vertex="1" parent="4zRke8CRrw9mpxlsunHC-29">
          <mxGeometry x="38.81" y="38.5" width="37.88" height="53" as="geometry" />
        </mxCell>
        <mxCell id="4zRke8CRrw9mpxlsunHC-35" value="" style="sketch=0;outlineConnect=0;fontColor=#232F3E;gradientColor=none;fillColor=#8C4FFF;strokeColor=none;dashed=0;verticalLabelPosition=bottom;verticalAlign=top;align=center;html=1;fontSize=12;fontStyle=0;aspect=fixed;pointerEvents=1;shape=mxgraph.aws4.internet_gateway;" vertex="1" parent="4zRke8CRrw9mpxlsunHC-9">
          <mxGeometry x="310.82" y="14" width="50" height="50" as="geometry" />
        </mxCell>
        <mxCell id="4zRke8CRrw9mpxlsunHC-78" value="Auto Scaling group" style="points=[[0,0],[0.25,0],[0.5,0],[0.75,0],[1,0],[1,0.25],[1,0.5],[1,0.75],[1,1],[0.75,1],[0.5,1],[0.25,1],[0,1],[0,0.75],[0,0.5],[0,0.25]];outlineConnect=0;gradientColor=none;html=1;whiteSpace=wrap;fontSize=12;fontStyle=0;container=1;pointerEvents=0;collapsible=0;recursiveResize=0;shape=mxgraph.aws4.groupCenter;grIcon=mxgraph.aws4.group_auto_scaling_group;grStroke=1;strokeColor=#D86613;fillColor=none;verticalAlign=top;align=center;fontColor=#D86613;dashed=1;spacingTop=25;" vertex="1" parent="4zRke8CRrw9mpxlsunHC-9">
          <mxGeometry x="40" y="338" width="631.25" height="182" as="geometry" />
        </mxCell>
        <mxCell id="4zRke8CRrw9mpxlsunHC-82" value="EC2 Security Group" style="text;html=1;align=center;verticalAlign=middle;whiteSpace=wrap;rounded=0;" vertex="1" parent="4zRke8CRrw9mpxlsunHC-78">
          <mxGeometry x="248.5" y="125" width="142.5" height="30" as="geometry" />
        </mxCell>
        <mxCell id="4zRke8CRrw9mpxlsunHC-89" value="WebServer" style="text;html=1;align=center;verticalAlign=middle;whiteSpace=wrap;rounded=0;" vertex="1" parent="4zRke8CRrw9mpxlsunHC-78">
          <mxGeometry x="96.5" y="99" width="60" height="30" as="geometry" />
        </mxCell>
        <mxCell id="4zRke8CRrw9mpxlsunHC-80" value="" style="rounded=1;arcSize=10;dashed=1;strokeColor=#ff0000;fillColor=none;gradientColor=none;dashPattern=8 4;strokeWidth=2;" vertex="1" parent="4zRke8CRrw9mpxlsunHC-78">
          <mxGeometry x="40.5" y="63.5" width="536.5" height="65.5" as="geometry" />
        </mxCell>
        <mxCell id="4zRke8CRrw9mpxlsunHC-87" value="" style="outlineConnect=0;dashed=0;verticalLabelPosition=bottom;verticalAlign=top;align=center;html=1;shape=mxgraph.aws3.ec2;fillColor=#F58534;gradientColor=none;" vertex="1" parent="4zRke8CRrw9mpxlsunHC-9">
          <mxGeometry x="96.75" y="250" width="50" height="44" as="geometry" />
        </mxCell>
        <mxCell id="4zRke8CRrw9mpxlsunHC-88" value="Bastion" style="text;html=1;align=center;verticalAlign=middle;whiteSpace=wrap;rounded=0;" vertex="1" parent="4zRke8CRrw9mpxlsunHC-9">
          <mxGeometry x="138.5" y="264" width="60" height="30" as="geometry" />
        </mxCell>
        <mxCell id="4zRke8CRrw9mpxlsunHC-90" value="" style="rounded=1;arcSize=10;dashed=1;strokeColor=#ff0000;fillColor=none;gradientColor=none;dashPattern=8 4;strokeWidth=2;" vertex="1" parent="4zRke8CRrw9mpxlsunHC-9">
          <mxGeometry x="52.5" y="233.5" width="137.5" height="65.5" as="geometry" />
        </mxCell>
        <mxCell id="4zRke8CRrw9mpxlsunHC-95" style="edgeStyle=orthogonalEdgeStyle;rounded=0;orthogonalLoop=1;jettySize=auto;html=1;exitX=1;exitY=0.5;exitDx=0;exitDy=0;entryX=0.563;entryY=0.038;entryDx=0;entryDy=0;entryPerimeter=0;" edge="1" parent="4zRke8CRrw9mpxlsunHC-9" source="4zRke8CRrw9mpxlsunHC-90" target="4zRke8CRrw9mpxlsunHC-80">
          <mxGeometry relative="1" as="geometry" />
        </mxCell>
        <mxCell id="4zRke8CRrw9mpxlsunHC-96" value="Bastion SG tcp/22/22" style="edgeLabel;html=1;align=center;verticalAlign=middle;resizable=0;points=[];" vertex="1" connectable="0" parent="4zRke8CRrw9mpxlsunHC-95">
          <mxGeometry x="-0.0339" y="-3" relative="1" as="geometry">
            <mxPoint x="1" as="offset" />
          </mxGeometry>
        </mxCell>
        <mxCell id="4zRke8CRrw9mpxlsunHC-108" style="edgeStyle=orthogonalEdgeStyle;rounded=0;orthogonalLoop=1;jettySize=auto;html=1;exitX=0;exitY=0.5;exitDx=0;exitDy=0;" edge="1" parent="4zRke8CRrw9mpxlsunHC-9" source="4zRke8CRrw9mpxlsunHC-74" target="4zRke8CRrw9mpxlsunHC-36">
          <mxGeometry relative="1" as="geometry" />
        </mxCell>
        <mxCell id="4zRke8CRrw9mpxlsunHC-101" style="edgeStyle=orthogonalEdgeStyle;rounded=0;orthogonalLoop=1;jettySize=auto;html=1;exitX=1;exitY=0.5;exitDx=0;exitDy=0;entryX=0.652;entryY=-0.038;entryDx=0;entryDy=0;entryPerimeter=0;" edge="1" parent="4zRke8CRrw9mpxlsunHC-9" source="4zRke8CRrw9mpxlsunHC-98" target="4zRke8CRrw9mpxlsunHC-80">
          <mxGeometry relative="1" as="geometry" />
        </mxCell>
        <mxCell id="4zRke8CRrw9mpxlsunHC-102" value="LB SG tcp/22/22" style="edgeLabel;html=1;align=center;verticalAlign=middle;resizable=0;points=[];" vertex="1" connectable="0" parent="4zRke8CRrw9mpxlsunHC-101">
          <mxGeometry x="-0.2716" y="-1" relative="1" as="geometry">
            <mxPoint as="offset" />
          </mxGeometry>
        </mxCell>
        <mxCell id="4zRke8CRrw9mpxlsunHC-104" style="edgeStyle=orthogonalEdgeStyle;rounded=0;orthogonalLoop=1;jettySize=auto;html=1;exitX=1;exitY=0.25;exitDx=0;exitDy=0;entryX=1.008;entryY=0.32;entryDx=0;entryDy=0;entryPerimeter=0;" edge="1" parent="4zRke8CRrw9mpxlsunHC-9" source="4zRke8CRrw9mpxlsunHC-98" target="4zRke8CRrw9mpxlsunHC-98">
          <mxGeometry relative="1" as="geometry" />
        </mxCell>
        <mxCell id="4zRke8CRrw9mpxlsunHC-109" style="edgeStyle=orthogonalEdgeStyle;rounded=0;orthogonalLoop=1;jettySize=auto;html=1;entryX=0;entryY=0.5;entryDx=0;entryDy=0;entryPerimeter=0;" edge="1" parent="4zRke8CRrw9mpxlsunHC-9" source="4zRke8CRrw9mpxlsunHC-98" target="4zRke8CRrw9mpxlsunHC-37">
          <mxGeometry relative="1" as="geometry" />
        </mxCell>
        <mxCell id="4zRke8CRrw9mpxlsunHC-97" value="" style="outlineConnect=0;dashed=0;verticalLabelPosition=bottom;verticalAlign=top;align=center;html=1;shape=mxgraph.aws3.classic_load_balancer;fillColor=#F58534;gradientColor=none;" vertex="1" parent="4zRke8CRrw9mpxlsunHC-9">
          <mxGeometry x="310.82" y="130" width="69" height="72" as="geometry" />
        </mxCell>
        <mxCell id="4zRke8CRrw9mpxlsunHC-110" value="" style="edgeStyle=orthogonalEdgeStyle;rounded=0;orthogonalLoop=1;jettySize=auto;html=1;exitX=0;exitY=0.5;exitDx=0;exitDy=0;" edge="1" parent="4zRke8CRrw9mpxlsunHC-9" source="4zRke8CRrw9mpxlsunHC-98" target="4zRke8CRrw9mpxlsunHC-74">
          <mxGeometry relative="1" as="geometry">
            <mxPoint x="378.5" y="248" as="sourcePoint" />
            <mxPoint x="221.5" y="248" as="targetPoint" />
          </mxGeometry>
        </mxCell>
        <mxCell id="4zRke8CRrw9mpxlsunHC-74" value="NAT Elastic IP" style="sketch=0;outlineConnect=0;fontColor=#232F3E;gradientColor=none;strokeColor=#232F3E;fillColor=#ffffff;dashed=0;verticalLabelPosition=bottom;verticalAlign=top;align=center;html=1;fontSize=12;fontStyle=0;aspect=fixed;shape=mxgraph.aws4.resourceIcon;resIcon=mxgraph.aws4.elastic_ip_address;" vertex="1" parent="4zRke8CRrw9mpxlsunHC-9">
          <mxGeometry x="201.5" y="150" width="46" height="46" as="geometry" />
        </mxCell>
        <mxCell id="4zRke8CRrw9mpxlsunHC-111" value="NAT Elastic IP" style="sketch=0;outlineConnect=0;fontColor=#232F3E;gradientColor=none;strokeColor=#232F3E;fillColor=#ffffff;dashed=0;verticalLabelPosition=bottom;verticalAlign=top;align=center;html=1;fontSize=12;fontStyle=0;aspect=fixed;shape=mxgraph.aws4.resourceIcon;resIcon=mxgraph.aws4.elastic_ip_address;" vertex="1" parent="4zRke8CRrw9mpxlsunHC-9">
          <mxGeometry x="490" y="149" width="46" height="46" as="geometry" />
        </mxCell>
        <mxCell id="4zRke8CRrw9mpxlsunHC-134" value="Public Route Table" style="whiteSpace=wrap;html=1;align=center;" vertex="1" parent="4zRke8CRrw9mpxlsunHC-9">
          <mxGeometry x="280" y="80" width="80.5" height="36" as="geometry" />
        </mxCell>
        <mxCell id="4zRke8CRrw9mpxlsunHC-92" style="edgeStyle=orthogonalEdgeStyle;rounded=0;orthogonalLoop=1;jettySize=auto;html=1;entryX=0.815;entryY=-0.038;entryDx=0;entryDy=0;entryPerimeter=0;" edge="1" parent="4zRke8CRrw9mpxlsunHC-9" source="4zRke8CRrw9mpxlsunHC-35" target="4zRke8CRrw9mpxlsunHC-90">
          <mxGeometry relative="1" as="geometry" />
        </mxCell>
        <mxCell id="4zRke8CRrw9mpxlsunHC-93" value="0.0.0.0/0 tcp/22/22" style="edgeLabel;html=1;align=center;verticalAlign=middle;resizable=0;points=[];" vertex="1" connectable="0" parent="4zRke8CRrw9mpxlsunHC-92">
          <mxGeometry x="-0.1305" relative="1" as="geometry">
            <mxPoint as="offset" />
          </mxGeometry>
        </mxCell>
        <mxCell id="4zRke8CRrw9mpxlsunHC-105" style="edgeStyle=orthogonalEdgeStyle;rounded=0;orthogonalLoop=1;jettySize=auto;html=1;entryX=0.89;entryY=0.01;entryDx=0;entryDy=0;entryPerimeter=0;" edge="1" parent="4zRke8CRrw9mpxlsunHC-9" source="4zRke8CRrw9mpxlsunHC-35" target="4zRke8CRrw9mpxlsunHC-98">
          <mxGeometry relative="1" as="geometry">
            <Array as="points">
              <mxPoint x="453" y="39" />
              <mxPoint x="453" y="131" />
            </Array>
          </mxGeometry>
        </mxCell>
        <mxCell id="4zRke8CRrw9mpxlsunHC-106" value="0.0.0.0/0" style="edgeLabel;html=1;align=center;verticalAlign=middle;resizable=0;points=[];" vertex="1" connectable="0" parent="4zRke8CRrw9mpxlsunHC-105">
          <mxGeometry x="-0.4581" relative="1" as="geometry">
            <mxPoint as="offset" />
          </mxGeometry>
        </mxCell>
        <mxCell id="4zRke8CRrw9mpxlsunHC-107" value="0 tcp/80/80" style="edgeLabel;html=1;align=center;verticalAlign=middle;resizable=0;points=[];" vertex="1" connectable="0" parent="4zRke8CRrw9mpxlsunHC-105">
          <mxGeometry x="-0.5592" relative="1" as="geometry">
            <mxPoint as="offset" />
          </mxGeometry>
        </mxCell>
        <mxCell id="4zRke8CRrw9mpxlsunHC-136" value="" style="endArrow=classic;html=1;rounded=0;exitX=0.404;exitY=0.111;exitDx=0;exitDy=0;exitPerimeter=0;" edge="1" parent="4zRke8CRrw9mpxlsunHC-9">
          <mxGeometry width="50" height="50" relative="1" as="geometry">
            <mxPoint x="312.52199999999993" y="77.9960000000001" as="sourcePoint" />
            <mxPoint x="322.87581084167937" y="57.99943065360981" as="targetPoint" />
          </mxGeometry>
        </mxCell>
        <mxCell id="4zRke8CRrw9mpxlsunHC-139" value="" style="endArrow=classic;html=1;rounded=0;exitX=1;exitY=0.5;exitDx=0;exitDy=0;entryX=0;entryY=0.25;entryDx=0;entryDy=0;" edge="1" parent="4zRke8CRrw9mpxlsunHC-9" source="4zRke8CRrw9mpxlsunHC-134" target="4zRke8CRrw9mpxlsunHC-32">
          <mxGeometry width="50" height="50" relative="1" as="geometry">
            <mxPoint x="652.5" y="344" as="sourcePoint" />
            <mxPoint x="702.5" y="294" as="targetPoint" />
          </mxGeometry>
        </mxCell>
        <mxCell id="4zRke8CRrw9mpxlsunHC-149" style="edgeStyle=orthogonalEdgeStyle;rounded=0;orthogonalLoop=1;jettySize=auto;html=1;exitX=0;exitY=0.5;exitDx=0;exitDy=0;" edge="1" parent="4zRke8CRrw9mpxlsunHC-9" source="4zRke8CRrw9mpxlsunHC-141">
          <mxGeometry relative="1" as="geometry">
            <mxPoint x="104.5" y="494" as="targetPoint" />
            <Array as="points">
              <mxPoint x="203" y="562" />
              <mxPoint x="203" y="524" />
              <mxPoint x="105" y="524" />
            </Array>
          </mxGeometry>
        </mxCell>
        <mxCell id="4zRke8CRrw9mpxlsunHC-141" value="Private Route Table" style="whiteSpace=wrap;html=1;align=center;" vertex="1" parent="4zRke8CRrw9mpxlsunHC-9">
          <mxGeometry x="309.5" y="544" width="80.5" height="36" as="geometry" />
        </mxCell>
        <mxCell id="4zRke8CRrw9mpxlsunHC-142" style="edgeStyle=orthogonalEdgeStyle;rounded=0;orthogonalLoop=1;jettySize=auto;html=1;entryX=0.221;entryY=0.854;entryDx=0;entryDy=0;entryPerimeter=0;" edge="1" parent="4zRke8CRrw9mpxlsunHC-9" source="4zRke8CRrw9mpxlsunHC-141" target="4zRke8CRrw9mpxlsunHC-22">
          <mxGeometry relative="1" as="geometry" />
        </mxCell>
        <mxCell id="4zRke8CRrw9mpxlsunHC-151" value="All internet traffic routed to IG" style="text;html=1;align=center;verticalAlign=middle;resizable=0;points=[];autosize=1;strokeColor=none;fillColor=none;" vertex="1" parent="4zRke8CRrw9mpxlsunHC-9">
          <mxGeometry x="172.5" y="54" width="180" height="30" as="geometry" />
        </mxCell>
        <mxCell id="4zRke8CRrw9mpxlsunHC-154" value="" style="sketch=0;outlineConnect=0;fontColor=#232F3E;gradientColor=none;fillColor=#7AA116;strokeColor=none;dashed=0;verticalLabelPosition=bottom;verticalAlign=top;align=center;html=1;fontSize=12;fontStyle=0;aspect=fixed;pointerEvents=1;shape=mxgraph.aws4.bucket_with_objects;" vertex="1" parent="UEzPUAAOIrF-is8g5C7q-74">
          <mxGeometry x="357.5" y="727" width="75" height="78" as="geometry" />
        </mxCell>
        <mxCell id="4zRke8CRrw9mpxlsunHC-155" value="" style="endArrow=classic;html=1;rounded=0;" edge="1" parent="UEzPUAAOIrF-is8g5C7q-74" source="4zRke8CRrw9mpxlsunHC-21" target="UEzPUAAOIrF-is8g5C7q-74">
          <mxGeometry width="50" height="50" relative="1" as="geometry">
            <mxPoint x="40" y="790" as="sourcePoint" />
            <mxPoint x="90" y="740" as="targetPoint" />
          </mxGeometry>
        </mxCell>
        <mxCell id="4zRke8CRrw9mpxlsunHC-158" style="edgeStyle=orthogonalEdgeStyle;rounded=0;orthogonalLoop=1;jettySize=auto;html=1;" edge="1" parent="UEzPUAAOIrF-is8g5C7q-74" source="4zRke8CRrw9mpxlsunHC-156" target="4zRke8CRrw9mpxlsunHC-154">
          <mxGeometry relative="1" as="geometry" />
        </mxCell>
        <mxCell id="4zRke8CRrw9mpxlsunHC-156" value="" style="sketch=0;outlineConnect=0;fontColor=#232F3E;gradientColor=none;fillColor=#DD344C;strokeColor=none;dashed=0;verticalLabelPosition=bottom;verticalAlign=top;align=center;html=1;fontSize=12;fontStyle=0;aspect=fixed;pointerEvents=1;shape=mxgraph.aws4.role;" vertex="1" parent="UEzPUAAOIrF-is8g5C7q-74">
          <mxGeometry x="110" y="744" width="78" height="44" as="geometry" />
        </mxCell>
        <mxCell id="4zRke8CRrw9mpxlsunHC-157" value="" style="endArrow=classic;html=1;rounded=0;" edge="1" parent="UEzPUAAOIrF-is8g5C7q-74" source="4zRke8CRrw9mpxlsunHC-78" target="4zRke8CRrw9mpxlsunHC-156">
          <mxGeometry width="50" height="50" relative="1" as="geometry">
            <mxPoint x="-10" y="760" as="sourcePoint" />
            <mxPoint x="40" y="710" as="targetPoint" />
          </mxGeometry>
        </mxCell>
        <mxCell id="4zRke8CRrw9mpxlsunHC-77" style="edgeStyle=orthogonalEdgeStyle;rounded=0;orthogonalLoop=1;jettySize=auto;html=1;" edge="1" parent="1" source="4zRke8CRrw9mpxlsunHC-76" target="4zRke8CRrw9mpxlsunHC-35">
          <mxGeometry relative="1" as="geometry" />
        </mxCell>
        <mxCell id="4zRke8CRrw9mpxlsunHC-76" value="Internet Cloud" style="image;aspect=fixed;perimeter=ellipsePerimeter;html=1;align=center;shadow=0;dashed=0;spacingTop=3;image=img/lib/active_directory/internet_cloud.svg;" vertex="1" parent="1">
          <mxGeometry x="335" y="-170" width="154.69" height="97.45" as="geometry" />
        </mxCell>
        <mxCell id="4zRke8CRrw9mpxlsunHC-140" value="" style="endArrow=classic;html=1;rounded=0;exitX=0;exitY=0.5;exitDx=0;exitDy=0;" edge="1" parent="1" source="4zRke8CRrw9mpxlsunHC-134">
          <mxGeometry width="50" height="50" relative="1" as="geometry">
            <mxPoint x="730" y="420" as="sourcePoint" />
            <mxPoint x="290" y="180" as="targetPoint" />
          </mxGeometry>
        </mxCell>
        <mxCell id="4zRke8CRrw9mpxlsunHC-150" value="All traffic from Nat Gateway" style="text;html=1;align=center;verticalAlign=middle;resizable=0;points=[];autosize=1;strokeColor=none;fillColor=none;" vertex="1" parent="1">
          <mxGeometry x="335" y="648" width="170" height="30" as="geometry" />
        </mxCell>
      </root>
    </mxGraphModel>
  </diagram>
</mxfile>
